<?xml version="1.0" encoding="utf-8"?>
<!-- Generator: Adobe Illustrator 21.0.0, SVG Export Plug-In . SVG Version: 6.00 Build 0)  -->
<svg version="1.1" id="Capa_1" xmlns="http://www.w3.org/2000/svg" xmlns:xlink="http://www.w3.org/1999/xlink" x="0px" y="0px"
	 viewBox="0 0 512 512" style="enable-background:new 0 0 512 512;" xml:space="preserve">
<style type="text/css">
	.st0{fill:#FCFCFC;}
	.st1{fill:#FCFCFC;stroke:#FFFFFF;stroke-width:9;stroke-miterlimit:10;}
</style>
<g>
	<path class="st0" d="M381.5,108.1c19.7,0,35.5-15.8,35.5-35.4V35.5c0-19.7-15.8-35.5-35.5-35.5c-19.6,0-35.5,15.8-35.5,35.5v37.1
		C346.1,92.3,362,108.1,381.5,108.1z"/>
	<path class="st0" d="M507.8,61.5h-71.6v18c0,29.9-24.2,54.1-54,54.1c-29.9,0-54-24.2-54-54.1v-18H183.9v18
		c0,29.9-24.2,54.1-54,54.1c-29.9,0-54-24.2-54-54.1v-18L3.7,60.6V512l36.1,0h432.5l36.1-0.1L507.8,61.5z M472.3,476.1H39.7V187.7
		h432.5V476.1z"/>
	<path class="st0" d="M129.2,108.1c19.7,0,35.5-15.8,35.5-35.4V35.5c0-19.7-15.9-35.5-35.5-35.5c-19.6,0-35.5,15.8-35.5,35.5v37.1
		C93.7,92.3,109.7,108.1,129.2,108.1z"/>
</g>
<path class="st1" d="M98,430.3V414l20.8-20.2c50.1-47.7,72.8-73.1,73.1-102.7c0-19.9-9.7-38.4-38.9-38.4c-17.8,0-32.6,9.1-41.7,16.6
	l-8.5-18.7c13.6-11.5,32.9-19.9,55.6-19.9c42.3,0,60.1,29,60.1,57.1c0,36.2-26.3,65.5-67.6,105.4l-15.7,14.5v0.6h88.2v22H98z"/>
<path class="st1" d="M306.4,398c7.2,4.6,23.9,11.8,41.5,11.8c32.6,0,42.7-20.8,42.4-36.3c-0.3-26.2-23.9-37.5-48.4-37.5h-14.1v-19
	h14.1c18.5,0,41.8-9.5,41.8-31.7c0-15-9.5-28.3-32.9-28.3c-15,0-29.4,6.6-37.5,12.4l-6.6-18.5c9.8-7.2,28.8-14.4,49-14.4
	c36.9,0,53.6,21.9,53.6,44.7c0,19.3-11.5,35.8-34.6,44.1v0.6c23.1,4.6,41.8,21.9,41.8,48.1c0,30-23.4,56.2-68.3,56.2
	c-21,0-39.5-6.6-48.7-12.7L306.4,398z"/>
</svg>
