<?xml version="1.0" encoding="utf-8"?>
<!-- Generator: Adobe Illustrator 21.0.0, SVG Export Plug-In . SVG Version: 6.00 Build 0)  -->
<svg version="1.1" id="Capa_1" xmlns="http://www.w3.org/2000/svg" xmlns:xlink="http://www.w3.org/1999/xlink" x="0px" y="0px"
	 viewBox="0 0 6.8 8.5" style="enable-background:new 0 0 6.8 8.5;" xml:space="preserve">
<style type="text/css">
	.st0{fill:#FFFFFF;}
</style>
<g>
	<path class="st0" d="M3.4,0.6c0.9,0,1.7,0.4,2.2,0.9c0.6,0.6,0.9,1.4,0.9,2.2c0,0.9-0.4,1.7-0.9,2.2C5.1,6.6,4.3,7,3.4,7
		C2.5,7,1.7,6.6,1.2,6C0.6,5.5,0.2,4.7,0.2,3.8c0-0.9,0.4-1.7,0.9-2.2C1.7,1,2.5,0.6,3.4,0.6z M5.5,1.7C5,1.2,4.2,0.8,3.4,0.8
		c-0.8,0-1.6,0.3-2.1,0.9C0.8,2.2,0.4,3,0.4,3.8c0,0.8,0.3,1.6,0.9,2.1c0.5,0.5,1.3,0.9,2.1,0.9c0.8,0,1.6-0.3,2.1-0.9
		c0.5-0.5,0.9-1.3,0.9-2.1C6.4,3,6.1,2.2,5.5,1.7z"/>
	<circle class="st0" cx="4.6" cy="2.6" r="0.3"/>
	<path class="st0" d="M4.6,2.3c-0.1,0-0.1,0-0.2,0.1c0,0-0.1,0.1-0.1,0.2c0,0.1,0,0.1,0.1,0.2c0,0,0.1,0.1,0.2,0.1
		c0.1,0,0.1,0,0.2-0.1c0,0,0.1-0.1,0.1-0.2c0-0.1,0-0.1-0.1-0.2C4.7,2.4,4.6,2.3,4.6,2.3z M4.3,2.3c0.1-0.1,0.2-0.1,0.3-0.1
		c0.1,0,0.2,0,0.3,0.1C4.9,2.3,5,2.4,5,2.6c0,0.1,0,0.2-0.1,0.3C4.8,2.9,4.7,3,4.6,3c-0.1,0-0.2,0-0.3-0.1C4.2,2.8,4.1,2.7,4.1,2.6
		C4.1,2.4,4.2,2.3,4.3,2.3z"/>
	<path class="st0" d="M4,4.5l0.3,0.1C4.2,4.8,4.1,5,3.9,5.1C3.7,5.3,3.5,5.4,3.3,5.4C3,5.4,2.8,5.3,2.6,5.2C2.4,5.1,2.3,4.9,2.2,4.7
		C2.1,4.5,2.1,4.3,2.1,4.1c0-0.3,0-0.5,0.1-0.7C2.4,3.2,2.5,3.1,2.7,3c0.2-0.1,0.4-0.1,0.6-0.1c0.2,0,0.5,0.1,0.6,0.2
		c0.2,0.1,0.3,0.3,0.4,0.5L3.9,3.6C3.9,3.4,3.8,3.3,3.7,3.2C3.6,3.1,3.4,3.1,3.3,3.1c-0.2,0-0.3,0-0.5,0.1C2.7,3.3,2.6,3.4,2.5,3.6
		C2.5,3.7,2.4,3.9,2.4,4.1c0,0.2,0,0.4,0.1,0.5C2.6,4.8,2.7,4.9,2.8,5C2.9,5,3.1,5.1,3.2,5.1c0.2,0,0.3-0.1,0.5-0.2
		C3.8,4.8,3.9,4.7,4,4.5z"/>
</g>
</svg>
