<?xml version="1.0" encoding="utf-8"?>
<!-- Generator: Adobe Illustrator 21.0.0, SVG Export Plug-In . SVG Version: 6.00 Build 0)  -->
<svg version="1.1" id="Capa_1" xmlns="http://www.w3.org/2000/svg" xmlns:xlink="http://www.w3.org/1999/xlink" x="0px" y="0px"
	 viewBox="0 0 24 30" style="enable-background:new 0 0 24 30;" xml:space="preserve">
<style type="text/css">
	.st0{fill:#FFFFFF;}
</style>
<g>
	<g>
		<path class="st0" d="M11.3,25c-1.5,0-2.8-1.3-2.8-2.8c0-0.7,0.3-1.4,0.8-1.9V7.9c0-1.1,0.9-2,2-2s2,0.9,2,2v12.4
			c0.5,0.6,0.8,1.2,0.8,1.9C14.1,23.7,12.8,25,11.3,25z M11.3,6.7c-0.6,0-1.2,0.6-1.2,1.2v12.6c0,0.1-0.1,0.2-0.2,0.3
			c-0.4,0.4-0.6,0.9-0.6,1.5c0,1.1,0.9,2,2,2s2-0.9,2-2c0-0.6-0.2-1.1-0.6-1.5c-0.1-0.1-0.2-0.2-0.2-0.3V7.9
			C12.5,7.2,11.9,6.7,11.3,6.7z"/>
	</g>
	<g>
		<path class="st0" d="M11.3,23.4c-0.6,0-1.2-0.6-1.2-1.2c0-0.6,0.6-1.2,1.2-1.2c0.6,0,1.2,0.6,1.2,1.2
			C12.5,22.8,11.9,23.4,11.3,23.4z M11.3,21.8c-0.2,0-0.4,0.2-0.4,0.4c0,0.2,0.2,0.4,0.4,0.4c0.2,0,0.4-0.2,0.4-0.4
			C11.7,22,11.5,21.8,11.3,21.8z"/>
	</g>
	<g>
		<path class="st0" d="M11.3,21.8c-0.2,0-0.4-0.2-0.4-0.4v-8c0-0.2,0.2-0.4,0.4-0.4c0.2,0,0.4,0.2,0.4,0.4v8
			C11.7,21.6,11.5,21.8,11.3,21.8z"/>
	</g>
</g>
</svg>
